<?xml version="1.0" standalone="no"?>
<!DOCTYPE svg PUBLIC "-//W3C//DTD SVG 20010904//EN"
 "http://www.w3.org/TR/2001/REC-SVG-20010904/DTD/svg10.dtd">
<svg version="1.0" xmlns="http://www.w3.org/2000/svg"
 width="1024.000000pt" height="1024.000000pt" viewBox="0 0 1024.000000 1024.000000"
 preserveAspectRatio="xMidYMid meet">

<g transform="translate(0.000000,1024.000000) scale(0.100000,-0.100000)"
fill="#000000" stroke="none">
<path d="M4780 9466 c-162 -17 -338 -43 -420 -61 -214 -47 -269 -61 -400 -102
-800 -248 -1518 -719 -2035 -1334 -150 -178 -244 -304 -337 -451 -221 -348
-388 -709 -503 -1090 -132 -435 -187 -796 -187 -1223 0 -594 114 -1169 335
-1680 78 -181 99 -225 160 -340 106 -200 139 -255 250 -420 216 -321 593 -727
877 -944 312 -239 488 -352 755 -484 385 -190 753 -311 1164 -382 510 -87 986
-92 1481 -14 222 35 305 54 510 114 476 141 868 334 1277 626 465 333 947 854
1204 1302 292 510 465 983 545 1497 34 223 43 307 55 524 14 272 3 481 -47
826 -44 307 -144 673 -251 925 -14 33 -41 98 -60 145 -39 96 -198 408 -249
488 -19 29 -34 54 -34 57 0 8 -173 260 -233 340 -260 345 -656 718 -1022 964
-227 152 -523 314 -730 399 -384 158 -717 249 -1095 299 -171 22 -237 26 -540
29 -235 2 -385 -2 -470 -10z m725 -496 c270 -25 509 -69 736 -134 337 -98 604
-212 899 -384 408 -238 792 -574 1082 -947 181 -232 302 -428 428 -688 112
-231 158 -352 246 -642 29 -93 99 -439 114 -558 16 -133 31 -523 25 -647 -31
-570 -164 -1068 -420 -1565 -134 -261 -235 -416 -436 -665 -425 -528 -943
-904 -1619 -1173 -228 -91 -608 -184 -910 -224 -171 -23 -692 -25 -840 -5
-482 68 -750 139 -1095 289 -287 125 -491 240 -720 403 -635 453 -1118 1082
-1382 1800 -111 301 -188 638 -224 977 -15 147 -6 613 15 788 43 349 141 715
282 1055 40 96 176 359 233 450 33 52 78 125 100 161 22 36 76 114 120 172
404 537 915 948 1506 1212 389 174 794 279 1255 324 123 12 477 13 605 1z"/>
<path d="M3630 7595 c-147 -23 -324 -81 -470 -152 -348 -171 -543 -424 -626
-813 -14 -63 -18 -128 -18 -255 0 -152 3 -180 27 -268 29 -109 109 -278 165
-347 74 -92 248 -250 392 -355 96 -71 327 -218 590 -375 552 -331 763 -508
913 -765 75 -128 92 -188 91 -335 0 -111 -3 -133 -26 -191 -121 -308 -428
-492 -823 -492 -261 0 -449 76 -626 252 -117 116 -184 218 -274 411 -37 80
-72 151 -77 158 -20 23 -95 11 -408 -69 -142 -36 -160 -44 -160 -67 0 -62 146
-396 228 -522 36 -54 138 -195 157 -216 230 -252 442 -396 710 -479 183 -57
267 -69 485 -69 164 0 212 3 302 22 404 84 730 290 945 594 35 49 61 78 73 78
12 0 32 -22 56 -61 120 -199 336 -398 553 -512 106 -56 288 -113 401 -127 430
-52 773 68 1024 357 146 168 267 418 349 723 20 73 63 351 82 525 8 77 18 284
22 460 5 284 4 322 -10 336 -13 14 -75 17 -454 23 -241 3 -487 9 -548 12 -60
3 -115 1 -122 -3 -14 -10 -23 -499 -10 -520 6 -10 73 -13 277 -13 147 0 275
-3 284 -6 36 -14 4 -451 -45 -610 -28 -91 -83 -214 -121 -272 -79 -117 -210
-211 -348 -248 -91 -24 -292 -24 -380 1 -259 73 -438 256 -626 640 -193 396
-394 659 -747 978 -287 260 -597 467 -997 667 -212 105 -331 179 -451 278 -98
81 -169 163 -208 239 -46 91 -56 135 -56 243 0 101 2 108 37 180 150 304 520
423 867 279 168 -70 303 -162 686 -474 116 -93 245 -203 289 -242 43 -40 86
-73 95 -73 10 0 64 62 130 151 329 437 576 653 811 709 175 41 365 34 515 -19
160 -56 354 -216 471 -387 33 -47 71 -100 87 -116 l27 -30 30 19 c92 56 293
199 340 241 l54 48 -28 55 c-16 30 -47 80 -70 112 -199 280 -406 472 -631 582
-134 65 -218 91 -366 110 -143 19 -184 19 -344 -1 -391 -49 -720 -233 -946
-530 -40 -52 -79 -94 -87 -94 -8 0 -54 35 -101 78 -487 443 -918 616 -1361
547z"/>
</g>
</svg>
