<?xml version="1.0" standalone="no"?>
<!DOCTYPE svg PUBLIC "-//W3C//DTD SVG 20010904//EN"
 "http://www.w3.org/TR/2001/REC-SVG-20010904/DTD/svg10.dtd">
<svg version="1.0" xmlns="http://www.w3.org/2000/svg"
 width="400.000000pt" height="120.000000pt" viewBox="0 0 400.000000 120.000000"
 preserveAspectRatio="xMidYMid meet">

<g transform="translate(0.000000,120.000000) scale(0.100000,-0.100000)"
fill="#000000" stroke="none">
<path d="M1870 1077 c-147 -50 -255 -168 -295 -324 -54 -208 51 -427 253 -525
65 -32 71 -33 192 -33 123 0 127 1 195 34 270 133 345 471 158 707 -114 143
-325 202 -503 141z m337 -71 c88 -46 144 -105 186 -194 30 -62 32 -75 32 -173
0 -101 -1 -108 -38 -181 -67 -137 -190 -218 -342 -226 -181 -10 -321 74 -399
237 -29 61 -31 74 -31 171 0 97 2 110 31 170 51 109 129 181 237 221 41 15 73
19 152 16 94 -3 104 -5 172 -41z"/>
<path d="M1800 883 c-44 -23 -73 -76 -66 -122 7 -43 40 -77 131 -137 90 -57
118 -100 95 -142 -38 -66 -126 -66 -169 1 -24 37 -43 45 -69 28 -26 -16 27
-90 87 -121 39 -20 115 -15 155 10 20 12 36 26 36 31 0 17 22 9 55 -20 44 -39
96 -47 143 -24 53 26 75 71 80 165 l5 79 -59 -3 c-52 -3 -59 -5 -62 -25 -3
-20 1 -23 28 -23 38 0 45 -16 30 -69 -12 -44 -33 -61 -78 -61 -33 0 -54 20
-105 102 -37 58 -80 95 -177 151 -36 21 -58 42 -65 61 -8 25 -6 31 18 52 40
34 67 30 135 -20 l59 -44 42 44 c36 38 47 44 82 44 31 0 47 -7 69 -29 27 -26
31 -27 50 -14 l20 14 -21 30 c-27 38 -68 59 -116 59 -34 0 -59 -11 -114 -51
-13 -10 -23 -7 -53 16 -48 36 -116 44 -166 18z"/>
</g>
</svg>
