<?xml version="1.0" standalone="no"?>
<!DOCTYPE svg PUBLIC "-//W3C//DTD SVG 20010904//EN"
 "http://www.w3.org/TR/2001/REC-SVG-20010904/DTD/svg10.dtd">
<svg version="1.0" xmlns="http://www.w3.org/2000/svg"
 width="800.000000pt" height="240.000000pt" viewBox="0 0 800.000000 240.000000"
 preserveAspectRatio="xMidYMid meet">

<g transform="translate(0.000000,240.000000) scale(0.100000,-0.100000)"
fill="#000000" stroke="none">
<path d="M3834 2091 c-255 -69 -440 -217 -554 -443 -70 -140 -94 -253 -87
-411 8 -175 42 -286 135 -432 85 -133 238 -259 387 -319 199 -79 468 -76 660
9 135 60 289 193 369 318 271 423 113 987 -339 1215 -118 59 -186 74 -350 78
-125 3 -162 1 -221 -15z m411 -101 c257 -81 447 -278 521 -540 22 -79 25 -290
5 -360 -104 -362 -387 -583 -746 -582 -279 1 -540 163 -665 412 -63 126 -75
182 -75 345 1 138 3 157 28 230 90 259 302 450 567 510 93 21 274 14 365 -15z"/>
<path d="M3642 1715 c-91 -42 -133 -106 -135 -205 -2 -103 41 -154 223 -266
158 -97 200 -145 200 -230 0 -39 -5 -51 -33 -79 -31 -31 -117 -61 -149 -51 -7
3 -25 7 -40 10 -40 9 -86 52 -114 108 -24 47 -26 49 -57 42 -75 -16 -77 -19
-61 -61 88 -223 362 -282 518 -113 l39 42 18 -23 c10 -13 19 -27 19 -30 0 -4
24 -23 54 -44 61 -42 140 -55 212 -36 56 15 118 78 143 145 22 59 41 180 41
262 l0 54 -100 0 c-55 0 -103 0 -107 0 -5 0 -8 -21 -8 -47 l0 -48 50 0 50 0 3
-43 c4 -57 -23 -137 -55 -162 -14 -11 -40 -22 -58 -26 -82 -15 -136 25 -199
147 -57 108 -170 216 -309 293 -127 71 -157 99 -164 155 -5 36 -2 44 30 76 30
30 41 35 84 35 61 0 99 -19 197 -99 43 -35 81 -60 85 -55 4 5 25 31 47 58 53
67 116 106 170 106 61 0 93 -15 141 -67 l43 -46 35 27 c19 15 35 31 35 35 0
22 -77 105 -123 131 -96 55 -232 35 -314 -47 l-44 -43 -52 41 c-75 60 -121 79
-197 79 -48 0 -79 -7 -118 -25z"/>
</g>
</svg>
