<?xml version="1.0" standalone="no"?>
<!DOCTYPE svg PUBLIC "-//W3C//DTD SVG 20010904//EN"
 "http://www.w3.org/TR/2001/REC-SVG-20010904/DTD/svg10.dtd">
<svg version="1.0" xmlns="http://www.w3.org/2000/svg"
 width="3000.000000pt" height="900.000000pt" viewBox="0 0 3000.000000 900.000000"
 preserveAspectRatio="xMidYMid meet">

<g transform="translate(0.000000,900.000000) scale(0.100000,-0.100000)"
fill="#000000" stroke="none">
<path d="M14425 8010 c-521 -40 -1047 -214 -1500 -497 -313 -197 -568 -422
-820 -724 -43 -51 -175 -228 -175 -235 0 -3 -12 -23 -27 -43 -31 -40 -48 -66
-63 -96 -6 -11 -26 -47 -45 -80 -68 -117 -167 -326 -215 -455 -17 -47 -38
-100 -46 -118 -8 -18 -14 -40 -14 -50 0 -9 -6 -34 -14 -57 -47 -135 -106 -378
-106 -436 0 -19 -5 -52 -10 -74 -6 -22 -17 -128 -25 -235 -16 -213 -8 -467 21
-627 8 -45 14 -96 14 -113 0 -29 6 -58 42 -210 6 -25 13 -58 15 -75 3 -16 11
-44 19 -62 8 -17 14 -41 14 -53 0 -12 5 -31 12 -43 6 -12 15 -35 19 -52 8 -34
26 -86 46 -132 7 -17 13 -36 13 -41 0 -16 129 -299 160 -352 5 -8 11 -22 14
-30 4 -8 15 -28 26 -45 11 -16 23 -37 27 -45 3 -8 18 -33 32 -55 39 -60 50
-79 57 -95 4 -8 20 -31 36 -51 15 -20 28 -40 28 -44 0 -3 6 -13 13 -20 16 -18
20 -23 98 -126 36 -47 77 -98 90 -114 44 -53 303 -310 359 -357 490 -409 1037
-662 1630 -755 171 -27 932 -27 1098 0 389 63 828 227 1152 431 35 23 72 46
81 51 77 46 252 177 329 245 145 127 238 218 374 365 21 22 79 94 129 160 50
66 93 122 96 125 31 27 176 274 250 425 78 160 100 208 135 303 9 23 22 59 30
80 13 35 65 205 86 282 21 77 55 279 77 460 24 194 24 505 0 700 -22 183 -55
378 -77 455 -30 109 -46 160 -72 240 -17 50 -36 104 -43 120 -7 17 -20 50 -30
75 -81 208 -316 640 -357 658 -5 2 -8 8 -8 13 0 6 -28 47 -62 92 -174 231
-402 459 -648 649 -445 342 -1006 575 -1566 648 -180 24 -521 34 -699 20z
m670 -410 c565 -84 1074 -313 1505 -676 123 -104 300 -283 370 -374 48 -62 47
-61 75 -95 14 -16 51 -68 83 -113 67 -98 58 -84 125 -197 84 -142 194 -385
232 -515 9 -30 21 -64 25 -75 15 -33 57 -196 85 -325 43 -198 61 -516 45 -790
-12 -206 -37 -353 -102 -585 -14 -54 -67 -213 -83 -250 -7 -16 -20 -50 -30
-75 -26 -63 -142 -299 -165 -335 -11 -16 -24 -39 -30 -50 -14 -29 -31 -55 -61
-95 -14 -19 -28 -40 -30 -46 -2 -6 -14 -24 -26 -40 -185 -240 -213 -273 -348
-407 -208 -207 -461 -388 -735 -526 -749 -379 -1596 -428 -2385 -137 -254 94
-667 331 -821 471 -6 6 -30 26 -54 45 -160 130 -308 285 -456 482 -57 76 -104
139 -104 142 0 2 -18 30 -39 62 -88 133 -193 347 -265 542 -8 20 -20 55 -29
77 -29 78 -39 115 -72 245 -28 112 -53 251 -76 420 -12 92 -7 471 9 620 12
117 49 312 79 415 45 159 45 160 87 273 34 92 77 195 110 262 30 61 110 206
121 220 6 8 15 22 19 30 37 81 227 336 342 460 216 233 420 400 669 548 369
221 785 359 1222 407 180 20 524 13 708 -15z"/>
<path d="M13496 6559 c-43 -5 -120 -20 -170 -35 -291 -85 -515 -251 -612 -454
-94 -196 -132 -415 -100 -585 34 -179 106 -319 221 -430 116 -111 176 -159
333 -264 123 -82 196 -128 431 -268 111 -66 308 -196 321 -212 3 -3 28 -24 55
-46 199 -159 325 -369 325 -542 0 -174 -129 -364 -306 -449 -116 -56 -210 -76
-354 -77 -137 -1 -200 10 -297 53 -197 89 -321 237 -449 538 -12 27 -26 45
-41 48 -12 3 -91 -10 -175 -30 -244 -58 -228 -52 -228 -86 0 -57 87 -268 150
-365 11 -16 23 -37 27 -45 9 -20 111 -155 154 -203 50 -57 204 -178 284 -224
332 -190 788 -202 1130 -31 171 86 319 210 414 346 36 51 49 62 72 62 22 0 31
-8 49 -44 12 -25 24 -46 28 -48 4 -2 22 -23 41 -48 79 -104 248 -242 378 -308
69 -36 202 -70 326 -83 198 -22 399 16 544 102 51 31 191 159 239 219 46 59
117 192 159 300 9 25 23 60 31 78 8 18 14 40 14 48 0 9 6 37 14 63 26 83 46
178 46 218 0 21 5 54 10 73 14 46 30 285 37 542 5 194 4 207 -13 216 -11 6
-194 11 -439 13 l-420 4 -3 -180 c-1 -99 0 -190 3 -202 5 -23 6 -23 213 -23
114 0 213 -4 221 -9 9 -6 13 -35 12 -110 0 -56 -3 -106 -5 -110 -3 -5 -10 -49
-16 -98 -28 -248 -146 -452 -302 -522 -173 -78 -407 -61 -559 42 -30 21 -69
50 -86 67 -64 58 -152 191 -227 342 -91 180 -121 236 -141 258 -8 9 -15 20
-15 24 0 4 -28 44 -62 89 -131 174 -316 366 -473 490 -11 8 -35 28 -54 44
-143 117 -357 251 -580 362 -275 138 -429 251 -512 377 -87 132 -99 242 -41
364 85 180 299 288 515 260 168 -21 308 -98 596 -328 80 -64 151 -121 157
-127 6 -5 30 -26 54 -45 24 -19 71 -61 105 -92 33 -32 65 -58 72 -58 7 0 54
55 104 123 50 67 97 127 103 132 6 6 22 24 34 40 41 53 157 169 228 226 155
127 263 164 464 157 151 -6 219 -26 329 -100 100 -67 170 -135 243 -235 47
-65 66 -83 85 -83 25 0 173 94 256 163 28 23 47 47 47 60 0 17 -51 109 -70
127 -3 3 -19 25 -35 50 -48 72 -264 282 -344 334 -78 52 -195 105 -274 125
-203 50 -475 23 -688 -69 -161 -69 -288 -169 -406 -318 -55 -68 -70 -81 -87
-76 -16 5 -94 71 -146 124 -12 13 -179 139 -222 168 -138 94 -353 176 -499
192 -105 11 -112 11 -223 -1z"/>
</g>
</svg>
